<svg t="1716194558499" class="icon" viewBox="0 0 1024 1024" version="1.1" xmlns="http://www.w3.org/2000/svg" p-id="14092" width="200" height="200"><path d="M48 208v575.68C48 678.256 134.256 592 239.68 592H944a32 32 0 0 1 32 32V48l-768 0.32C112 48 48 112 48 208z" fill="#2BB0AF" p-id="14093"></path><path d="M944 592H239.68C134.256 592 48 678.256 48 783.68 48 889.456 134.544 976 240.32 976H944a32 32 0 1 0 0-64H240.32C169.744 912 112 854.256 112 783.68 112 713.456 169.456 656 239.68 656H944a32 32 0 1 0 0-64z" fill="#EFC95B" p-id="14094"></path><path d="M112 783.68C112 854.256 169.744 912 240.32 912h703.52c-93.808-29.632-93.648-226.368 0.16-256H239.68C169.456 656 112 713.456 112 783.68zM320 848l-48-64-48 64v-128h96v128z" fill="#E7E7E7" p-id="14095"></path><path d="M224 848l48-64 48 64v-128h-96z" fill="#D6705A" p-id="14096"></path><path d="M208 720v128c0 6.896 4.4 12.992 10.944 15.168a15.872 15.872 0 0 0 17.856-5.584l35.2-46.928 35.2 46.928a15.968 15.968 0 0 0 17.856 5.568A15.936 15.936 0 0 0 336 848v-128a16 16 0 0 0-16-16h-96a16 16 0 0 0-16 16z m32 16h64v64l-19.2-25.6a16 16 0 0 0-25.6 0L240 800v-64z" fill="#383838" p-id="14097"></path><path d="M976 32l-768 0.32h-0.72c-51.04 0-94.784 16.688-126.48 48.304C48.88 112.432 32 156.48 32 208v575.68C32 898.544 125.456 992 240.32 992H944c26.464 0 48-21.536 48-48a47.904 47.904 0 0 0-44.32-47.632c-40.112-13.456-58.128-65.856-58.128-112.24 0-46.512 18.08-99.088 58.336-112.528A47.904 47.904 0 0 0 992 624V48a16.032 16.032 0 0 0-16-16zM64 208c0-42.832 13.632-79.024 39.392-104.72 25.584-25.504 61.504-38.976 103.904-38.976h0.656l0.048-16v16L960 64v514.944A47.456 47.456 0 0 0 944 576H240V144h-32v434.672a207.76 207.76 0 0 0-144 94.752V208z m793.568 576.144c0 45.744 13.152 85.28 35.664 111.856H240.32A112.448 112.448 0 0 1 128 783.68C128 722.112 178.112 672 239.68 672h653.664c-22.576 26.64-35.776 66.272-35.776 112.144zM944 640H239.68C160.448 640 96 704.448 96 783.68 96 863.264 160.736 928 240.32 928H944a16 16 0 0 1 0 32H240.32C143.088 960 64 880.912 64 783.68 64 686.816 142.816 608 239.68 608H944a16 16 0 0 1 0 32z" fill="#383838" p-id="14098"></path><path d="M496 448h32v32h-32zM560 448h32v32h-32zM624 448h32v32h-32zM468.688 347.312l22.624-22.624L454.624 288l36.688-36.688-22.624-22.624-48 48a15.984 15.984 0 0 0 0 22.624l48 48zM545.376 329.392l63.952-143.904 29.248 13.008-63.936 143.888zM683.312 347.312l48-48a15.984 15.984 0 0 0 0-22.624l-48-48-22.624 22.624L697.376 288l-36.688 36.688 22.624 22.624z" fill="#383838" p-id="14099"></path></svg>